HIERARCHY
ROOT joint_Root
{
	OFFSET 0.0 0.0 0.0
	CHANNELS 6 Xposition Yposition Zposition Zrotation Xrotation Yrotation 
	JOINT Hips
	{
		OFFSET -17.1583 93.1646 452.98
		CHANNELS 6 Xposition Yposition Zposition Zrotation Xrotation Yrotation 
		JOINT Spine
		{
			OFFSET 15.7357 0.0 0.0
			CHANNELS 6 Xposition Yposition Zposition Zrotation Xrotation Yrotation 
			JOINT Chest
			{
				OFFSET 8.98455 -0.406207 0.0
				CHANNELS 6 Xposition Yposition Zposition Zrotation Xrotation Yrotation 
				JOINT Neck
				{
					OFFSET 16.3773 0.0 0.0
					CHANNELS 6 Xposition Yposition Zposition Zrotation Xrotation Yrotation 
					JOINT Head
					{
						OFFSET 6.45672 0.0 0.0
						CHANNELS 6 Xposition Yposition Zposition Zrotation Xrotation Yrotation 
						End Site
						{
							OFFSET 0.0 0.0 0.0
						}
					}
				}
				JOINT Shoulder_L
				{
					OFFSET 12.9942 -0.242716 4.98039
					CHANNELS 6 Xposition Yposition Zposition Zrotation Xrotation Yrotation 
					JOINT UpperArm_L
					{
						OFFSET 5.34809 0.0 0.0
						CHANNELS 6 Xposition Yposition Zposition Zrotation Xrotation Yrotation 
						JOINT LowerArm_L
						{
							OFFSET 24.3286 1.87007e-05 0.0
							CHANNELS 6 Xposition Yposition Zposition Zrotation Xrotation Yrotation 
							JOINT Hand_L
							{
								OFFSET 22.2916 0.0 0.0
								CHANNELS 6 Xposition Yposition Zposition Zrotation Xrotation Yrotation 
								End Site
								{
									OFFSET 0.0 0.0 0.0
								}
							}
						}
					}
				}
				JOINT Shoulder_R
				{
					OFFSET 12.9945 -0.242716 -4.98039
					CHANNELS 6 Xposition Yposition Zposition Zrotation Xrotation Yrotation 
					JOINT UpperArm_R
					{
						OFFSET -5.34813 0.0 0.0
						CHANNELS 6 Xposition Yposition Zposition Zrotation Xrotation Yrotation 
						JOINT LowerArm_R
						{
							OFFSET -24.3289 0.000322201 0.0
							CHANNELS 6 Xposition Yposition Zposition Zrotation Xrotation Yrotation 
							JOINT Hand_R
							{
								OFFSET -22.2915 -0.000108084 0.0
								CHANNELS 6 Xposition Yposition Zposition Zrotation Xrotation Yrotation 
								End Site
								{
									OFFSET 0.0 0.0 0.0
								}
							}
						}
					}
				}
			}
		}
		JOINT UpperLeg_L
		{
			OFFSET -2.19248 -6.46944 0.0
			CHANNELS 6 Xposition Yposition Zposition Zrotation Xrotation Yrotation 
			JOINT LowerLeg_L
			{
				OFFSET 39.0811 0.0 -1.23785e-05
				CHANNELS 6 Xposition Yposition Zposition Zrotation Xrotation Yrotation 
				JOINT Foot_L
				{
					OFFSET 40.9854 0.0 -1.26872e-05
					CHANNELS 6 Xposition Yposition Zposition Zrotation Xrotation Yrotation 
					JOINT Toes_L
					{
						OFFSET 11.7543 0.0 0.0
						CHANNELS 6 Xposition Yposition Zposition Zrotation Xrotation Yrotation 
						End Site
						{
							OFFSET 0.0 0.0 0.0
						}
					}
				}
			}
		}
		JOINT UpperLeg_R
		{
			OFFSET -2.19251 6.46944 0.0
			CHANNELS 6 Xposition Yposition Zposition Zrotation Xrotation Yrotation 
			JOINT LowerLeg_R
			{
				OFFSET -39.0811 -0.00228153 -0.0401928
				CHANNELS 6 Xposition Yposition Zposition Zrotation Xrotation Yrotation 
				JOINT Foot_R
				{
					OFFSET -40.9854 0.0 0.0
					CHANNELS 6 Xposition Yposition Zposition Zrotation Xrotation Yrotation 
					JOINT Toes_R
					{
						OFFSET -11.7543 0.0 0.0
						CHANNELS 6 Xposition Yposition Zposition Zrotation Xrotation Yrotation 
						End Site
						{
							OFFSET 0.0 0.0 0.0
						}
					}
				}
			}
		}
	}
}
MOTION
Frames:	9
Frame Time:	0.0333333
0.000000 0.000000 0.000000 0.000000 0.000000 -0.000000 -2.910290 92.798100 0.304410 87.950100 2.263330 0.345218 15.735700 0.000005 -0.000001 67.463100 87.439800 -66.119700 8.984550 -0.406207 -0.000000 -3.011740 -2.087980 2.632470 16.377300 -0.000001 -0.000001 3.818430 0.885076 -2.621080 6.456720 -0.000001 -0.000000 1.457730 -0.246411 -2.332110 12.994200 -0.242716 4.980390 -92.629900 7.904080 -71.530000 5.348090 -0.000007 -0.000001 -73.994300 15.611200 2.356540 24.328600 0.000019 0.000005 11.998900 24.224900 -27.383000 22.291600 -0.000001 0.000005 0.303799 4.928520 8.804090 12.994500 -0.242716 -4.980390 88.418300 5.078230 -72.674400 -5.348130 -0.000001 -0.000004 -71.175000 26.387100 -4.139200 -24.328900 0.000322 -0.000009 1.395350 4.856110 -16.064000 -22.291500 -0.000108 -0.000004 2.414280 5.244210 1.585330 -2.192480 -6.469440 -0.000000 -175.460000 2.583020 -2.644980 39.081100 -0.000007 -0.000012 0.179735 -0.528487 18.783200 40.985400 -0.000006 -0.000013 1.219010 11.224900 -72.062400 11.754300 -0.000000 0.000003 0.000006 0.167526 -9.782070 -2.192510 6.469440 -0.000001 -174.658000 8.947170 -177.733000 -39.081100 -0.002282 -0.040193 0.035533 -0.161441 11.278500 -40.985400 0.000008 0.000006 1.521340 2.442870 -69.039000 -11.754300 -0.000006 -0.000006 -0.008531 0.259982 -6.013850
0.000000 0.000000 0.000000 0.000000 0.000000 -0.000000 -2.908880 92.823900 0.194758 87.910800 2.200790 0.224373 15.735700 0.000005 -0.000001 66.534800 87.437900 -65.100500 8.984550 -0.406207 -0.000000 -3.037820 -2.174680 2.811590 16.377300 -0.000001 -0.000001 3.605910 0.928229 -2.771060 6.456720 -0.000001 -0.000000 1.440250 -0.156233 -2.827250 12.994200 -0.242716 4.980390 -92.615100 7.903810 -71.626200 5.348090 -0.000007 -0.000001 -73.700300 14.619000 2.093090 24.328600 0.000019 0.000005 11.589500 23.842800 -26.900200 22.291600 -0.000001 0.000005 0.371802 4.924320 8.889160 12.994500 -0.242716 -4.980390 88.435200 5.026450 -72.682800 -5.348130 -0.000001 -0.000004 -71.075900 26.303800 -4.323650 -24.328900 0.000322 -0.000009 1.391330 4.835670 -16.084200 -22.291500 -0.000108 -0.000004 2.422190 5.242670 1.625620 -2.192480 -6.469440 -0.000000 -175.416000 2.521730 -2.804680 39.081100 -0.000007 -0.000012 0.179975 -0.531026 18.722800 40.985400 -0.000006 -0.000013 1.198960 11.231500 -72.018300 11.754300 -0.000000 0.000003 -0.000232 0.171448 -9.622750 -2.192510 6.469440 -0.000001 -174.608000 8.860560 -177.880000 -39.081100 -0.002282 -0.040193 0.033230 -0.151575 11.156600 -40.985400 0.000008 0.000006 1.397270 2.455150 -68.857000 -11.754300 -0.000006 -0.000006 -0.008484 0.259607 -6.029170
0.000000 0.000000 0.000000 0.000000 0.000000 -0.000000 -2.895960 92.847100 0.097611 87.866500 2.118810 0.159126 15.735700 0.000005 -0.000001 65.744000 87.422200 -64.220700 8.984550 -0.406207 -0.000000 -3.034820 -2.260590 2.987440 16.377300 -0.000001 -0.000001 3.439050 0.985290 -2.969440 6.456720 -0.000001 -0.000000 1.381670 -0.089025 -3.258860 12.994200 -0.242716 4.980390 -92.589400 7.885530 -71.755800 5.348090 -0.000007 -0.000001 -73.318000 13.281100 1.789490 24.328600 0.000019 0.000005 11.373200 23.805200 -26.489300 22.291600 -0.000001 0.000005 0.454338 4.918330 9.010200 12.994500 -0.242716 -4.980390 88.468300 4.928700 -72.712900 -5.348130 -0.000001 -0.000004 -71.059100 26.193800 -4.496840 -24.328900 0.000322 -0.000009 1.387950 4.827300 -16.073600 -22.291500 -0.000108 -0.000004 2.410740 5.244290 1.583080 -2.192480 -6.469440 -0.000000 -175.353000 2.437510 -2.928640 39.081100 -0.000007 -0.000012 0.174121 -0.514456 18.699000 40.985400 -0.000006 -0.000013 1.007940 11.256900 -71.833800 11.754300 -0.000000 0.000003 0.000120 0.165578 -9.861170 -2.192510 6.469440 -0.000001 -174.563000 8.740310 -177.964000 -39.081100 -0.002282 -0.040193 0.031190 -0.142694 11.044800 -40.985400 0.000008 0.000006 1.270730 2.457250 -68.710000 -11.754300 -0.000006 -0.000006 -0.008509 0.259804 -6.021130
0.000000 0.000000 0.000000 0.000000 0.000000 -0.000000 -2.897530 92.859300 -0.009954 87.821400 1.963880 0.034844 15.735700 0.000005 -0.000001 65.050500 87.430900 -63.441300 8.984550 -0.406207 -0.000000 -3.073850 -2.318620 3.157140 16.377300 -0.000001 -0.000001 3.289130 1.093200 -3.247320 6.456720 -0.000001 -0.000000 1.368150 -0.034323 -3.613240 12.994200 -0.242716 4.980390 -92.579700 7.869610 -71.786000 5.348090 -0.000007 -0.000001 -72.741600 11.790900 1.394140 24.328600 0.000019 0.000005 11.151400 23.627900 -26.189300 22.291600 -0.000001 0.000005 0.239278 4.908280 9.212440 12.994500 -0.242716 -4.980390 88.490200 4.869340 -72.750200 -5.348130 -0.000001 -0.000004 -71.001100 26.247000 -4.624200 -24.328900 0.000322 -0.000009 1.348450 4.661140 -16.166500 -22.291500 -0.000108 -0.000004 2.380620 5.242070 1.641420 -2.192480 -6.469440 -0.000000 -175.303000 2.389140 -3.154130 39.081100 -0.000007 -0.000012 0.173695 -0.511026 18.772900 40.985400 -0.000006 -0.000013 0.888826 11.192800 -71.786800 11.754300 -0.000000 0.000003 -0.000099 0.169270 -9.711240 -2.192510 6.469440 -0.000001 -174.474000 8.550220 -178.143000 -39.081100 -0.002282 -0.040193 0.031671 -0.145912 10.989200 -40.985400 0.000008 0.000006 1.381560 2.392320 -68.616900 -11.754300 -0.000006 -0.000006 -0.008783 0.261975 -5.932440
0.000000 0.000000 0.000000 0.000000 0.000000 -0.000000 -2.894160 92.874900 -0.095581 87.786700 1.824440 0.037582 15.735700 0.000005 -0.000001 64.888000 87.400100 -63.200500 8.984550 -0.406207 -0.000000 -3.021830 -2.364590 3.313520 16.377300 -0.000001 -0.000001 3.148440 1.176240 -3.536890 6.456720 -0.000001 -0.000000 1.291510 -0.002905 -4.023750 12.994200 -0.242716 4.980390 -92.589700 7.911310 -71.809100 5.348090 -0.000007 -0.000001 -71.886100 10.211100 1.053800 24.328600 0.000019 0.000005 11.172800 23.325600 -26.511000 22.291600 -0.000001 0.000005 -0.278213 4.888560 9.605990 12.994500 -0.242716 -4.980390 88.511300 4.811510 -72.785700 -5.348130 -0.000001 -0.000004 -70.949000 26.275700 -4.716330 -24.328900 0.000322 -0.000009 1.347490 4.617640 -16.299500 -22.291500 -0.000108 -0.000004 2.340450 5.243050 1.615880 -2.192480 -6.469440 -0.000000 -175.237000 2.322830 -3.231940 39.081100 -0.000007 -0.000012 0.166074 -0.487291 18.819900 40.985400 -0.000006 -0.000013 0.572049 11.192100 -71.638700 11.754300 -0.000000 0.000003 -0.000040 0.168297 -9.750730 -2.192510 6.469440 -0.000001 -174.443000 8.422300 -178.188000 -39.081100 -0.002282 -0.040193 0.030640 -0.140933 10.964100 -40.985400 0.000008 0.000006 1.263750 2.402570 -68.531800 -11.754300 -0.000006 -0.000006 -0.008614 0.260642 -5.986910
0.000000 0.000000 0.000000 0.000000 0.000000 -0.000000 -2.920310 92.875400 -0.183325 87.716500 1.708840 0.029562 15.735700 0.000005 -0.000001 64.398300 87.375700 -62.633500 8.984550 -0.406207 -0.000000 -2.993980 -2.432700 3.466850 16.377300 -0.000001 -0.000001 3.004830 1.264400 -3.883810 6.456720 -0.000001 -0.000000 1.264410 0.026440 -4.428750 12.994200 -0.242716 4.980390 -92.592800 7.893390 -71.750700 5.348090 -0.000007 -0.000001 -70.905200 8.169540 0.880650 24.328600 0.000019 0.000005 11.802900 23.363600 -27.786200 22.291600 -0.000001 0.000005 -0.975019 4.880080 9.772970 12.994500 -0.242716 -4.980390 88.512500 4.821640 -72.831900 -5.348130 -0.000001 -0.000004 -70.863200 26.343400 -4.729210 -24.328900 0.000322 -0.000009 1.341320 4.542990 -16.480600 -22.291500 -0.000108 -0.000004 2.337570 5.243680 1.599510 -2.192480 -6.469440 -0.000000 -175.139000 2.251860 -3.354500 39.081100 -0.000007 -0.000012 0.165819 -0.482981 18.948900 40.985400 -0.000006 -0.000013 0.516119 11.212500 -71.622000 11.754300 -0.000000 0.000003 0.000028 0.167156 -9.797090 -2.192510 6.469440 -0.000001 -174.329000 8.248300 -178.262000 -39.081100 -0.002282 -0.040193 0.031205 -0.143915 10.959200 -40.985400 0.000008 0.000006 1.358620 2.333950 -68.453600 -11.754300 -0.000006 -0.000006 -0.008477 0.259552 -6.031420
0.000000 0.000000 0.000000 0.000000 0.000000 -0.000000 -2.960830 92.870200 -0.263019 87.635000 1.583130 0.060616 15.735700 0.000005 -0.000001 64.478700 87.363300 -62.636100 8.984550 -0.406207 -0.000000 -2.966520 -2.443520 3.622880 16.377300 -0.000001 -0.000001 2.964190 1.357210 -4.249920 6.456720 -0.000001 -0.000000 1.177870 -0.006336 -4.975160 12.994200 -0.242716 4.980390 -92.602200 7.909160 -71.722700 5.348090 -0.000007 -0.000001 -69.828900 5.425220 1.056770 24.328600 0.000019 0.000005 12.930300 23.073200 -30.362500 22.291600 -0.000001 0.000005 -1.198440 4.874600 9.880710 12.994500 -0.242716 -4.980390 88.504300 4.842570 -72.812800 -5.348130 -0.000001 -0.000004 -70.761000 26.378400 -4.706290 -24.328900 0.000322 -0.000009 1.355250 4.548170 -16.624400 -22.291500 -0.000108 -0.000004 2.253520 5.243270 1.609990 -2.192480 -6.469440 -0.000000 -175.015000 2.193000 -3.479180 39.081100 -0.000007 -0.000012 0.165958 -0.477528 19.164400 40.985400 -0.000006 -0.000013 0.323640 11.211400 -71.629800 11.754300 -0.000000 0.000003 -0.000072 0.168822 -9.729410 -2.192510 6.469440 -0.000001 -174.198000 8.067060 -178.301000 -39.081100 -0.002282 -0.040193 0.032141 -0.148406 10.984000 -40.985400 0.000008 0.000006 1.490400 2.256380 -68.438100 -11.754300 -0.000006 -0.000006 -0.008644 0.260879 -5.977230
0.000000 0.000000 0.000000 0.000000 0.000000 -0.000000 -2.993530 92.860900 -0.331845 87.560900 1.393350 0.112603 15.735700 0.000005 -0.000001 65.163800 87.360200 -63.255100 8.984550 -0.406207 -0.000000 -2.933120 -2.394780 3.756980 16.377300 -0.000001 -0.000001 2.944580 1.440030 -4.617830 6.456720 -0.000001 -0.000000 1.044950 -0.078876 -5.692700 12.994200 -0.242716 4.980390 -92.626000 7.909000 -71.565700 5.348090 -0.000007 -0.000001 -68.730400 2.076590 1.539120 24.328600 0.000019 0.000005 14.437100 22.173700 -34.298500 22.291600 -0.000001 0.000005 -0.988985 4.866030 10.049100 12.994500 -0.242716 -4.980390 88.488100 4.889190 -72.793500 -5.348130 -0.000001 -0.000004 -70.662400 26.337400 -4.646630 -24.328900 0.000322 -0.000009 1.376680 4.586560 -16.739300 -22.291500 -0.000108 -0.000004 2.204550 5.242210 1.637810 -2.192480 -6.469440 -0.000000 -174.907000 2.159280 -3.573170 39.081100 -0.000007 -0.000012 0.162781 -0.462529 19.389200 40.985400 -0.000006 -0.000013 0.064112 11.092900 -71.589400 11.754300 -0.000000 0.000003 0.000040 0.166943 -9.805740 -2.192510 6.469440 -0.000001 -174.082000 7.853710 -178.341000 -39.081100 -0.002282 -0.040193 0.033574 -0.154480 11.074800 -40.985400 0.000008 0.000006 1.575260 2.202020 -68.433800 -11.754300 -0.000006 -0.000006 -0.008352 0.258550 -6.072380
0.000000 0.000000 0.000000 0.000000 0.000000 -0.000000 -3.065370 92.831200 -0.397130 87.457300 1.305770 0.251353 15.735700 0.000005 -0.000001 66.136600 87.333700 -64.166700 8.984550 -0.406207 -0.000000 -2.847010 -2.338890 3.882370 16.377300 -0.000001 -0.000001 2.943290 1.482250 -5.047270 6.456720 -0.000001 -0.000000 0.900758 -0.229443 -6.563300 12.994200 -0.242716 4.980390 -92.655100 7.930640 -71.422200 5.348090 -0.000007 -0.000001 -67.636500 -2.001500 2.082050 24.328600 0.000019 0.000005 16.371700 21.039000 -39.294000 22.291600 -0.000001 0.000005 -0.621930 4.841570 10.522800 12.994500 -0.242716 -4.980390 88.473800 4.919660 -72.741300 -5.348130 -0.000001 -0.000004 -70.630100 26.258100 -4.547610 -24.328900 0.000322 -0.000009 1.381000 4.586700 -16.788400 -22.291500 -0.000108 -0.000004 2.196790 5.242750 1.623660 -2.192480 -6.469440 -0.000000 -174.743000 2.168550 -3.676200 39.081100 -0.000007 -0.000012 0.165142 -0.459136 19.782900 40.985400 -0.000006 -0.000013 -0.102255 11.075300 -71.690700 11.754300 -0.000000 0.000003 0.000087 0.166144 -9.838170 -2.192510 6.469440 -0.000001 -173.893000 7.705150 -178.337000 -39.081100 -0.002282 -0.040193 0.037146 -0.169993 11.248600 -40.985400 0.000008 0.000006 1.863390 2.025160 -68.531900 -11.754300 -0.000006 -0.000006 -0.008605 0.260565 -5.990040
